<svg width="20" height="20" viewBox="0 0 20 20" fill="none" xmlns="http://www.w3.org/2000/svg">
<path d="M10.002 2H9.998C5.587 2 2 5.588 2 10C2 11.75 2.564 13.372 3.523 14.689L2.526 17.661L5.601 16.678C6.866 17.516 8.375 18 10.002 18C14.413 18 18 14.411 18 10C18 5.589 14.413 2 10.002 2ZM14.657 13.297C14.464 13.842 13.698 14.294 13.087 14.426C12.669 14.515 12.123 14.586 10.285 13.824C7.934 12.85 6.42 10.461 6.302 10.306C6.189 10.151 5.352 9.041 5.352 7.893C5.352 6.745 5.935 6.186 6.17 5.946C6.363 5.749 6.682 5.659 6.988 5.659C7.087 5.659 7.176 5.664 7.256 5.668C7.491 5.678 7.609 5.692 7.764 6.063C7.957 6.528 8.427 7.676 8.483 7.794C8.54 7.912 8.597 8.072 8.517 8.227C8.442 8.387 8.376 8.458 8.258 8.594C8.14 8.73 8.028 8.834 7.91 8.98C7.802 9.107 7.68 9.243 7.816 9.478C7.952 9.708 8.422 10.475 9.114 11.091C10.007 11.886 10.731 12.14 10.99 12.248C11.183 12.328 11.413 12.309 11.554 12.159C11.733 11.966 11.954 11.646 12.179 11.331C12.339 11.105 12.541 11.077 12.753 11.157C12.969 11.232 14.112 11.797 14.347 11.914C14.582 12.032 14.737 12.088 14.794 12.187C14.85 12.286 14.85 12.751 14.657 13.297Z" fill="#374151"/>
</svg>
