<svg width="24" height="24" viewBox="0 0 24 24" fill="none" xmlns="http://www.w3.org/2000/svg">
<path d="M12 1.75781C9.21897 1.75781 8.87025 1.7696 7.77805 1.81943C6.68813 1.86919 5.94375 2.04226 5.29237 2.29542C4.619 2.55711 4.04794 2.90725 3.47867 3.47652C2.9094 4.04578 2.55926 4.61684 2.29757 5.29021C2.04442 5.94155 1.87134 6.68593 1.82159 7.77585C1.77176 8.86805 1.76001 9.21677 1.76001 11.9978C1.76001 14.7788 1.77176 15.1275 1.82159 16.2197C1.87134 17.3096 2.04442 18.054 2.29757 18.7053C2.55926 19.3787 2.9094 19.9498 3.47867 20.5191C4.04794 21.0884 4.619 21.4385 5.29237 21.7002C5.94375 21.9533 6.68813 22.1264 7.77805 22.1761C8.87025 22.226 9.21897 22.2377 12 22.2377C14.781 22.2377 15.1297 22.226 16.2219 22.1761C17.3118 22.1264 18.0562 21.9533 18.7075 21.7002C19.3809 21.4385 19.952 21.0884 20.5213 20.5191C21.0905 19.9498 21.4407 19.3787 21.7024 18.7053C21.9555 18.054 22.1286 17.3096 22.1783 16.2197C22.2282 15.1275 22.2399 14.7788 22.2399 11.9978C22.2399 9.21677 22.2282 8.86805 22.1783 7.77585C22.1286 6.68593 21.9555 5.94155 21.7024 5.29021C21.4407 4.61684 21.0905 4.04578 20.5213 3.47652C19.952 2.90725 19.3809 2.55711 18.7075 2.29542C18.0562 2.04226 17.3118 1.86919 16.2219 1.81943C15.1297 1.7696 14.781 1.75781 12 1.75781ZM12 3.60289C14.7342 3.60289 15.058 3.61329 16.1378 3.66256C17.1362 3.70813 17.6784 3.87494 18.0392 4.01514C18.5172 4.2009 18.8583 4.42283 19.2166 4.78114C19.575 5.13945 19.7969 5.4806 19.9826 5.95854C20.1229 6.31937 20.2897 6.86157 20.3352 7.85995C20.3845 8.93972 20.3949 9.2636 20.3949 11.9978C20.3949 14.732 20.3845 15.0558 20.3352 16.1356C20.2897 17.134 20.1229 17.6762 19.9826 18.037C19.7969 18.515 19.575 18.8561 19.2166 19.2144C18.8583 19.5728 18.5172 19.7947 18.0392 19.9804C17.6784 20.1207 17.1362 20.2875 16.1378 20.333C15.0582 20.3823 14.7344 20.3927 12 20.3927C9.26559 20.3927 8.94179 20.3823 7.86215 20.333C6.86376 20.2875 6.32157 20.1207 5.96074 19.9804C5.48276 19.7947 5.14165 19.5728 4.7833 19.2144C4.42499 18.8561 4.20305 18.515 4.01733 18.037C3.8771 17.6762 3.71028 17.134 3.66472 16.1356C3.61545 15.0558 3.60505 14.732 3.60505 11.9978C3.60505 9.2636 3.61545 8.93972 3.66472 7.85995C3.71028 6.86157 3.8771 6.31937 4.01733 5.95854C4.20305 5.4806 4.42499 5.13945 4.7833 4.78114C5.14165 4.42283 5.48276 4.2009 5.96074 4.01514C6.32157 3.87494 6.86376 3.70813 7.86215 3.66256C8.94191 3.61329 9.26579 3.60289 12 3.60289Z" fill="white"/>
<path d="M12 15.41C10.1148 15.41 8.58661 13.8818 8.58661 11.9967C8.58661 10.1115 10.1148 8.58332 12 8.58332C13.8851 8.58332 15.4133 10.1115 15.4133 11.9967C15.4133 13.8818 13.8851 15.41 12 15.41ZM12 6.73828C9.0958 6.73828 6.74158 9.09251 6.74158 11.9967C6.74158 14.9008 9.0958 17.255 12 17.255C14.9041 17.255 17.2583 14.9008 17.2583 11.9967C17.2583 9.09251 14.9041 6.73828 12 6.73828Z" fill="white"/>
<path d="M18.695 6.53713C18.695 7.21578 18.1449 7.7659 17.4662 7.7659C16.7876 7.7659 16.2374 7.21578 16.2374 6.53713C16.2374 5.85847 16.7876 5.30835 17.4662 5.30835C18.1449 5.30835 18.695 5.85847 18.695 6.53713Z" fill="white"/>
</svg>
