<svg width="24" height="24" viewBox="0 0 24 24" fill="none" xmlns="http://www.w3.org/2000/svg">
<path d="M6.8586 8.85522H2.82156V20.9998H6.8586V8.85522Z" fill="white"/>
<path d="M4.86692 3C3.48573 3 2.58185 3.90626 2.58185 5.09786C2.58185 6.26397 3.45915 7.19749 4.81366 7.19749H4.84084C6.24861 7.19749 7.12481 6.26397 7.12481 5.09786C7.09822 3.90626 6.24861 3 4.86692 3Z" fill="white"/>
<path d="M16.7687 8.57007C14.6242 8.57007 13.6657 9.75067 13.1295 10.5768V10.6162H13.1034C13.111 10.6038 13.122 10.5895 13.1295 10.5768V8.85559H9.09204C9.14589 9.9952 9.09204 21.0001 9.09204 21.0001H13.1297V14.2176C13.1297 13.8539 13.1569 13.493 13.2635 13.2331C13.5559 12.5071 14.2198 11.7564 15.3355 11.7564C16.7965 11.7564 17.381 12.8706 17.381 14.5027V21.0003H21.4181V14.036C21.4179 10.3056 19.4262 8.57007 16.7687 8.57007Z" fill="white"/>
</svg>
