<svg width="24" height="24" viewBox="0 0 24 24" fill="none" xmlns="http://www.w3.org/2000/svg">
<path d="M22.3921 3.33185C21.5199 3.85295 20.5544 4.23109 19.526 4.43518C18.703 3.55213 17.5298 3 16.2315 3C13.7391 3 11.7184 5.03453 11.7184 7.5443C11.7184 7.89997 11.7581 8.24659 11.8354 8.57979C8.08405 8.39004 4.75791 6.58128 2.5317 3.83183C2.14322 4.50266 1.92081 5.28321 1.92081 6.11675C1.92081 7.6931 2.71748 9.0842 3.92865 9.89891C3.18908 9.87509 2.49288 9.6705 1.88418 9.33016C1.88375 9.34906 1.88375 9.3684 1.88375 9.38773C1.88375 11.589 3.43962 13.4253 5.50464 13.8434C5.12593 13.9469 4.72716 14.0026 4.31536 14.0026C4.02423 14.0026 3.74152 13.9743 3.46598 13.9208C4.04074 15.7259 5.70735 17.0402 7.68217 17.0766C6.13743 18.2955 4.19165 19.0221 2.07669 19.0221C1.71271 19.0221 1.3532 19.0005 1 18.9583C2.99799 20.2482 5.37023 21 7.91889 21C16.2213 21 20.7608 14.0759 20.7608 8.07082C20.7608 7.87387 20.7568 7.67741 20.7484 7.48231C21.6299 6.84294 22.3953 6.04221 23 5.13084C22.1912 5.49279 21.3208 5.73689 20.4076 5.84618C21.34 5.28406 22.055 4.39388 22.3921 3.33185Z" fill="white"/>
</svg>
