<svg width="145" height="64" viewBox="0 0 145 64" fill="none" xmlns="http://www.w3.org/2000/svg">
<ellipse rx="0.754696" ry="0.943933" transform="matrix(0.735233 -0.677814 0.677535 0.735491 18.1529 43.9177)" fill="white"/>
<ellipse rx="1.34342" ry="1.5496" transform="matrix(0.987519 0.157503 -0.157386 0.987537 27.1976 26.1693)" fill="white"/>
<ellipse rx="1.34342" ry="1.55178" transform="matrix(0.797459 -0.603373 0.60308 0.797681 30.8524 25.2577)" fill="white"/>
<path d="M52.7432 62.2901C47.1967 62.2901 48.7242 60.5393 46.1478 59.4269C42.7552 57.9615 40.3575 57.2929 38.5664 57.3103C38.9546 56.1339 39.4848 55.3928 39.5538 55.2996C39.9328 55.2971 40.5794 55.9332 40.5794 55.9332C40.5212 55.8083 40.2386 55.4802 40.2386 55.4802C40.2386 55.4802 40.458 55.5943 40.6201 55.7991C40.7822 56.004 41.0016 56.1139 41.0016 56.1139C40.8445 55.9682 40.6916 55.546 40.6916 55.546C40.9002 55.6551 41.4246 56.4103 41.4246 56.4103C41.3922 56.1547 41.172 55.7742 41.172 55.7742C41.4329 55.8982 41.8219 56.6959 41.8219 56.6959C41.8476 56.581 41.7205 56.158 41.7205 56.158C41.9731 56.7625 42.5325 57.1422 42.5325 57.1422C42.1036 56.6276 42.1003 55.9215 41.452 55.2663C41.0805 54.8899 40.5096 54.8616 40.0899 54.9049C40.089 54.8891 40.0874 54.8741 40.084 54.8583C40.2112 54.8391 40.3475 54.8383 40.4896 54.8691C40.335 54.795 40.2278 54.6143 40.2278 54.6143C40.5835 54.8516 41.147 54.9424 41.147 54.9424C40.8794 54.735 40.8237 54.4403 40.8237 54.4403C41.0631 54.8374 41.6565 55.0756 41.6565 55.0756C41.5177 54.9915 41.472 54.8058 41.472 54.8058C41.9042 55.3603 42.8375 55.4528 42.8375 55.4528C42.21 55.3254 41.3265 54.0132 40.5553 54.0931C40.2095 54.1289 39.9311 54.3246 39.7208 54.5494C39.6602 54.1872 39.5131 53.7992 39.1806 53.541C38.49 53.004 36.8619 53.7301 36.1845 53.4769C36.1845 53.4769 37.1328 53.9474 37.8775 53.6751C37.8775 53.6751 37.7229 53.8258 37.54 53.8233C37.54 53.8233 38.2506 53.9507 38.7161 53.7134C38.7161 53.7134 38.4867 53.9624 38.1069 53.9998C38.1069 53.9998 38.7003 54.2505 39.1823 54.2363C39.1823 54.2363 38.9729 54.3454 38.78 54.3237C38.9529 54.3862 39.0942 54.4811 39.2114 54.5902C38.8922 54.4694 38.49 54.4278 38.0819 54.6726C37.1735 55.218 36.989 56.0639 36.4555 56.2912C36.4555 56.2912 37.5359 55.934 37.9074 55.1713C37.9074 55.1713 37.791 55.5827 37.5267 55.8133C37.5267 55.8133 38.1916 55.377 38.3512 55.0723C38.3512 55.0723 38.2631 55.3837 38.16 55.4969C38.16 55.4969 38.682 55.0972 39.0493 54.9907C39.0543 55.0048 39.0601 55.019 39.0668 55.0331C38.9396 55.1255 38.7302 55.2912 38.7094 55.3978C38.7094 55.3978 38.903 55.2563 39.174 55.1855C39.1756 55.1872 39.1765 55.188 39.1773 55.1896C39.2405 55.2521 39.3144 55.2713 39.3851 55.2621C38.9222 55.6284 38.4917 56.4577 38.1401 57.3295C37.491 57.3786 36.925 57.5268 36.423 57.7683C36.049 57.949 35.705 58.0672 35.38 58.1363C34.7924 54.6984 35.9186 51.9233 36.2959 51.1189C36.8585 51.298 37.5974 52.0307 37.5974 52.0307C37.5118 51.8442 37.0921 51.3529 37.0921 51.3529C37.0921 51.3529 37.4187 51.5244 37.6597 51.8308C37.9007 52.1372 38.2274 52.3029 38.2274 52.3029C37.9938 52.0848 37.7686 51.4545 37.7686 51.4545C38.0794 51.6177 38.8573 52.7467 38.8573 52.7467C38.8108 52.3654 38.4842 51.7967 38.4842 51.7967C38.8731 51.9832 39.4482 53.1747 39.4482 53.1747C39.4873 53.0032 39.3003 52.3729 39.3003 52.3729C39.6735 53.2763 40.5054 53.8441 40.5054 53.8441C39.8688 53.0739 39.8671 52.0224 38.9047 51.0407C38.4451 50.5728 37.7786 50.462 37.2068 50.4737C37.0971 50.447 37.0048 50.442 37.0048 50.442C37.7295 50.243 38.5939 50.6086 38.5939 50.6086C38.5465 50.4354 38.1567 50.1073 38.1567 50.1073C38.672 50.2147 39.5164 50.8966 39.5164 50.8966C39.3967 50.7426 39.3036 50.2813 39.3036 50.2813C39.6843 50.9932 40.7406 51.7925 40.7406 51.7925C40.5918 51.6144 40.4348 50.9466 40.4348 50.9466C40.9592 51.9408 42.1244 52.6118 42.1244 52.6118C41.1279 51.9724 40.365 49.5345 39.2139 49.2222C38.2008 48.9466 37.1577 49.6269 36.9225 49.7934C36.9475 49.7626 36.9724 49.7318 36.9957 49.7002C37.4303 49.1323 38.4958 49.0649 38.4958 49.0649C38.0786 48.8009 37.3614 48.9891 37.3614 48.9891C37.3614 48.9891 37.8351 48.7485 38.4127 48.6494C38.9695 48.5536 39.5721 48.5903 40.0649 48.8367C40.0433 48.4196 38.5914 48.3754 38.5914 48.3754C39.5181 48.0133 41.1503 48.6594 41.1503 48.6594C40.729 47.726 38.244 47.4987 37.1237 48.1165C36.8602 48.2614 36.6632 48.4595 36.5136 48.676C36.5161 48.3688 36.4679 48.0158 36.3283 47.6294C35.9659 46.6228 35.4955 47.0016 33.412 45.7235C33.412 45.7235 34.2165 46.8259 35.5072 47.3655C35.5072 47.3655 34.819 47.3247 34.3943 47.0333C34.3943 47.0333 35.2296 47.8068 35.754 47.935C35.754 47.935 35.2329 47.9034 35.0293 47.7968C35.0293 47.7968 35.9028 48.2547 35.9294 49.2314C35.6352 48.7143 35.1265 48.0449 34.3029 47.5745C33.1618 46.9234 32.7479 47.4529 31.783 47.0599C32.4579 47.9092 33.3438 47.4171 33.8408 47.9458C33.8408 47.9458 33.2649 47.7785 32.7429 47.9367C33.9871 48.2123 33.8466 48.4504 34.637 48.6194C34.637 48.6194 33.7943 48.4279 33.466 48.6236C33.466 48.6236 34.0727 48.7826 34.5855 49.149C34.3046 49.0008 33.9904 48.9042 33.6463 48.905C32.3556 48.9083 31.1189 51.208 30.0984 51.5702C32.0955 44.1998 33.5873 33.4706 29.17 24.5832C31.5993 23.5791 34.268 24.7905 34.268 24.7905C33.9447 24.0178 31.4306 23.0403 31.4306 23.0403C33.3471 22.843 37.2325 24.7023 37.2325 24.7023C36.5726 24.2268 35.7715 22.7031 35.7715 22.7031C36.9333 24.1153 40.8703 25.6531 40.8703 25.6531C39.243 24.7439 38.1883 22.7306 38.1883 22.7306C40.9567 26.2901 46.9689 26.9603 46.9689 26.9603C43.9428 26.3658 42.0596 22.1636 36.7347 20.3252C36.635 20.291 36.5369 20.2602 36.4388 20.2311L38.8723 20.1928C36.005 19.2211 35.8886 17.4376 35.8886 17.4376C37.6738 19.8447 42.0197 20.6507 42.0197 20.6507C41.1188 20.2127 40.8129 18.1528 40.8129 18.1528C45.0914 22.9579 49.3849 22.1453 49.3849 22.1453C45.5402 21.8264 41.1911 13.8199 34.2846 15.2819C32.2459 15.7141 30.8123 17.1803 29.8241 18.8006C30.0069 18.4393 30.1914 18.0829 30.3685 17.7224C31.5661 15.2803 34.2547 13.5076 34.2547 13.5076C33.0571 13.252 30.8106 14.5293 30.371 14.789C32.7662 13.3553 32.5626 13.0846 36.4089 10.7558C34.4633 10.8182 32.2127 11.6492 32.2127 11.6492C33.5175 10.0297 36.3532 9.52851 39.2804 9.60594C37.0447 8.96066 32.6008 7.59016 29.49 11.0955C27.4687 13.3736 26.6676 15.8656 26.3775 17.8264C25.3361 16.5151 23.9233 15.0763 22.173 14.0705C18.1105 11.735 15.0305 13.8632 7.62619 14.5293C7.62619 14.5293 12.2255 15.7957 17.7166 14.7765C17.7166 14.7765 15.9164 15.7174 14.0415 15.9339C14.0415 15.9339 16.7259 16.6949 19.0356 16.5267C21.1183 16.3752 22.1713 17.1087 22.1713 17.1087C22.1713 17.1087 19.5866 16.356 18.1155 17.2569C18.1155 17.2569 21.6801 17.59 23.3681 19.4884C21.7616 18.6349 19.2824 17.7082 16.8315 18.3393C12.7142 19.3993 9.87848 28.0561 6.29477 30.2883C6.29477 30.2883 10.481 27.9503 12.3959 24.4317C12.3959 24.4317 11.8066 26.803 11.2672 27.4324C11.2672 27.4324 15.0704 24.6315 16.4616 22.112C16.4616 22.112 16.1084 23.7522 15.6746 24.2959C15.6746 24.2959 18.7156 21.9038 20.559 21.5449C20.559 21.5449 19.1519 22.6956 18.9749 23.3101C18.9749 23.3101 21.3444 22.3459 23.6615 22.6007C21.6569 22.5907 19.3564 23.0195 17.7665 24.6565C14.3506 28.1718 15.1876 29.3033 13.3558 33.8412C15.7776 33.101 16.4924 29.1585 18.6682 27.5282C18.6682 27.5282 18.1263 29.375 17.9668 30.7371C17.9668 30.7371 20.7194 26.6972 21.8256 26.1086C21.8256 26.1086 21.0327 28.3616 20.2049 29.1435C20.2049 29.1435 21.366 28.5482 22.2203 27.4508C23.0747 26.3525 24.2358 25.7364 24.2358 25.7364C24.2358 25.7364 22.7473 27.4932 22.4456 28.161C22.4456 28.161 25.5938 25.0053 27.6275 24.7572C29.062 30.2425 31.7107 45.3797 21.3294 56.8566C21.3959 53.2013 20.849 47.6977 17.5271 43.9692C18.517 43.2024 19.8949 43.423 19.8949 43.423C19.6497 43.1091 18.3723 42.9759 18.3723 42.9759C19.2275 42.6445 21.2455 43.01 21.2455 43.01C20.8831 42.8743 20.3238 42.2756 20.3238 42.2756C21.0344 42.7777 23.0357 42.9892 23.0357 42.9892C22.1746 42.776 21.4374 41.9842 21.4374 41.9842C23.1545 43.2706 26.0002 42.8227 26.0002 42.8227C24.5358 42.9301 23.1445 41.2365 20.4684 41.0617C20.416 41.0583 20.3662 41.0583 20.3146 41.0575L21.4333 40.732C19.9947 40.6462 19.7179 39.8419 19.7179 39.8419C20.839 40.7228 22.9368 40.5463 22.9368 40.5463C22.468 40.458 22.0699 39.5505 22.0699 39.5505C24.6372 41.2199 26.5072 40.3065 26.5072 40.3065C24.7012 40.6437 21.7001 37.513 18.7114 39.0534C17.8296 39.508 17.3551 40.3606 17.1041 41.229C17.1423 41.0409 17.183 40.8543 17.2188 40.667C17.4631 39.3948 18.4754 38.2424 18.4754 38.2424C17.8812 38.2765 16.9852 39.1816 16.8423 39.329C17.7731 38.3606 17.6401 38.2657 19.1195 36.707C18.2335 36.9801 17.3044 37.6454 17.3044 37.6454C17.7008 36.7379 18.9408 36.15 20.2947 35.8186C19.1852 35.8028 16.9719 35.732 15.9821 37.7337C15.3388 39.0351 15.284 40.2798 15.3962 41.2174C14.7537 40.7461 13.9243 40.2624 12.9934 40.0201C10.8351 39.458 9.68649 40.8235 6.36956 42.06C6.36956 42.06 8.64097 42.0633 11.0354 40.9043C11.0354 40.9043 10.3264 41.5629 9.49201 41.8985C9.49201 41.8985 10.8201 41.9101 11.8598 41.5429C12.7973 41.2115 13.3733 41.4155 13.3733 41.4155C13.3733 41.4155 12.0917 41.3947 11.529 41.9934C11.529 41.9934 13.207 41.6978 14.221 42.3581C13.3766 42.1682 12.1216 42.0542 11.0753 42.652C9.31665 43.657 9.09973 47.9891 7.73257 49.4654C7.73257 49.4654 9.36236 47.8651 9.80118 46.0083C9.80118 46.0083 9.82778 47.1715 9.65907 47.5287C9.65907 47.5287 11.0553 45.7635 11.3786 44.4321C11.3786 44.4321 11.4218 45.2298 11.2905 45.5345C11.2905 45.5345 12.3876 44.0533 13.1888 43.657C13.1888 43.657 12.6868 44.3622 12.6826 44.6669C12.6826 44.6669 13.65 43.9259 14.7462 43.7519C13.8245 43.9992 12.8214 44.4854 12.2962 45.4371C11.1675 47.4812 11.6936 47.8959 11.421 50.2106C12.4408 49.5661 12.2745 47.6652 13.0699 46.6428C13.0699 46.6428 13.0525 47.5595 13.1497 48.2048C13.1497 48.2048 13.9077 46.0033 14.3423 45.5937C14.3423 45.5937 14.26 46.7285 13.9783 47.1915C13.9783 47.1915 14.4371 46.7718 14.6922 46.1607C14.9465 45.5487 15.4028 45.1199 15.4028 45.1199C15.4028 45.1199 14.9391 46.114 14.8842 46.4587C14.8842 46.4587 15.9347 44.6137 16.8373 44.244C18.1729 46.5645 21.2471 53.0973 18.0449 59.6217C17.5595 59.8007 16.9944 59.9339 16.2879 59.9947C15.0463 60.1013 13.8221 60.3736 12.6552 60.8124C7.17241 62.8698 0 64 0 64H28.8134L52.7432 64C53.9641 64 53.9641 62.2901 52.7432 62.2901ZM39.479 55.2329L39.4782 55.2354L39.4765 55.2346C39.4765 55.2338 39.4773 55.2338 39.479 55.2329ZM28.4312 56.8374C28.9489 55.4186 29.544 53.6285 30.1 51.5769C30.3194 51.5261 31.6658 51.1822 32.2401 50.2613C32.2401 50.2613 32.1969 50.5802 31.9791 50.7459C31.9791 50.7459 32.9307 50.2422 33.2607 49.5361C33.2607 49.5361 33.2183 50.039 32.8069 50.4329C32.8069 50.4329 33.7344 50.1822 34.2879 49.7218C34.2879 49.7218 34.1408 50.0424 33.8948 50.1939C34.1591 50.1065 34.4168 50.0882 34.6586 50.1098C34.2871 50.1165 33.8907 50.2272 33.5192 50.5328C32.2999 51.5386 32.2152 52.8275 31.478 53.2804C31.478 53.2804 32.9923 52.5144 33.3721 51.3071C33.3721 51.3071 33.2914 51.9399 32.9532 52.3379C32.9532 52.3379 33.8375 51.5477 34.0045 51.0623C34.0045 51.0623 33.943 51.5411 33.8159 51.7309C33.8159 51.7309 34.6553 50.8608 35.1781 50.7251C35.1781 50.7251 34.6129 51.2289 34.6038 51.4636C34.6038 51.4636 35.2188 50.8508 35.9842 50.9125L35.9202 51.109C35.9393 51.1006 35.9585 51.0948 35.9792 51.0898C34.7866 52.6943 34.2364 56.9656 34.1018 58.1738C32.6839 57.9681 31.3475 57.0397 28.8218 56.8624C28.6905 56.8532 28.56 56.8449 28.4312 56.8374Z" fill="white"/>
<path d="M10.5661 57.7326C12.7768 58.2638 13.4509 58.4386 14.2745 59.0548C14.2894 58.5669 12.1726 54.1281 9.20475 53.9866C8.42103 53.9491 7.70545 54.4853 7.5866 55.2622C7.39378 56.5278 8.87398 57.3254 10.5661 57.7326Z" fill="white"/>
<path d="M6.89451 59.8872C8.01318 59.5508 8.35725 59.4534 8.88168 59.5134C8.76283 59.2927 6.67759 57.8706 5.32456 58.5767C4.96719 58.7632 4.78767 59.1861 4.9356 59.5616C5.17496 60.1745 6.03765 60.1453 6.89451 59.8872Z" fill="white"/>
<path d="M61.0845 43.0412C60.4919 43.0412 59.971 42.9109 59.5217 42.6504C59.0789 42.3898 58.7338 42.012 58.4864 41.5169C58.239 41.0219 58.1152 40.4258 58.1152 39.7289C58.1152 39.0384 58.2455 38.4456 58.5059 37.9505C58.7664 37.449 59.1343 37.0646 59.6096 36.7976C60.085 36.5305 60.6417 36.3969 61.2798 36.3969C61.9831 36.3969 62.5463 36.5272 62.9696 36.7878C63.3993 37.0418 63.7412 37.4392 63.9951 37.9798L62.7449 38.5172C62.6407 38.172 62.4617 37.918 62.2077 37.7551C61.9603 37.5857 61.6542 37.5011 61.2896 37.5011C60.7426 37.5011 60.3096 37.6932 59.9905 38.0776C59.6715 38.4619 59.512 39.0091 59.512 39.7191C59.512 40.4552 59.665 41.0121 59.971 41.3899C60.2771 41.7677 60.7296 41.9566 61.3287 41.9566C61.7649 41.9566 62.1263 41.8524 62.4128 41.644C62.7058 41.429 62.8524 41.1066 62.8524 40.6766V40.5301H61.1626V39.5432H64.0147V42.9435H63.0672L63.0086 42.1227C62.8263 42.4159 62.5724 42.6439 62.2468 42.8067C61.9212 42.963 61.5338 43.0412 61.0845 43.0412Z" fill="white"/>
<path d="M67.3322 41.8589H70.7312V42.9435H65.9843V36.4947H67.3322V41.8589Z" fill="white"/>
<path d="M74.903 36.3969C75.5412 36.3969 76.0914 36.5305 76.5537 36.7976C77.016 37.0646 77.3709 37.4457 77.6183 37.9408C77.8723 38.4358 77.9992 39.0286 77.9992 39.7191C77.9992 40.4096 77.8723 41.0023 77.6183 41.4974C77.3709 41.9925 77.016 42.3735 76.5537 42.6406C76.0914 42.9077 75.5412 43.0412 74.903 43.0412C74.2649 43.0412 73.7114 42.9077 73.2426 42.6406C72.7803 42.3735 72.4221 41.9925 72.1682 41.4974C71.9208 41.0023 71.797 40.4096 71.797 39.7191C71.797 39.0286 71.9208 38.4358 72.1682 37.9408C72.4221 37.4457 72.7803 37.0646 73.2426 36.7976C73.7114 36.5305 74.2649 36.3969 74.903 36.3969ZM74.903 37.5011C74.3561 37.5011 73.9328 37.6932 73.6333 38.0776C73.3403 38.4554 73.1938 39.0025 73.1938 39.7191C73.1938 40.4356 73.3403 40.9861 73.6333 41.3704C73.9328 41.7482 74.3561 41.9371 74.903 41.9371C75.4435 41.9371 75.8602 41.7482 76.1532 41.3704C76.4528 40.9861 76.6025 40.4356 76.6025 39.7191C76.6025 39.0025 76.4528 38.4554 76.1532 38.0776C75.8602 37.6932 75.4435 37.5011 74.903 37.5011Z" fill="white"/>
<path d="M79.8473 42.9435V36.4947H82.6701C83.4514 36.4947 84.0277 36.6477 84.3989 36.9539C84.77 37.26 84.9556 37.6932 84.9556 38.2534C84.9556 38.5987 84.8514 38.9048 84.643 39.1719C84.4347 39.439 84.1286 39.6083 83.7249 39.68V39.6898C84.1742 39.7549 84.5193 39.9243 84.7603 40.1979C85.0012 40.4714 85.1216 40.7971 85.1216 41.175C85.1216 41.7286 84.9198 42.1618 84.5161 42.4745C84.1189 42.7872 83.5361 42.9435 82.7677 42.9435H79.8473ZM81.1561 39.2012H82.4942C83.204 39.2012 83.5589 38.9244 83.5589 38.3707C83.5589 37.817 83.204 37.5401 82.4942 37.5401H81.1561V39.2012ZM81.1561 41.9273H82.6505C83.0087 41.9273 83.2756 41.8557 83.4514 41.7124C83.6338 41.5625 83.7249 41.3508 83.7249 41.0772C83.7249 40.8102 83.6338 40.605 83.4514 40.4617C83.2756 40.3119 83.0087 40.2369 82.6505 40.2369H81.1561V41.9273Z" fill="white"/>
<path d="M86.1181 42.9435L88.472 36.4947H90.0836L92.4375 42.9435H91.0408L90.5036 41.3704H88.0227L87.4952 42.9435H86.1181ZM88.9799 38.5368L88.3548 40.3737H90.1715L89.5659 38.5563L89.2729 37.5792H89.2533L88.9799 38.5368Z" fill="white"/>
<path d="M95.2299 41.8589H98.6289V42.9435H93.882V36.4947H95.2299V41.8589Z" fill="white"/>
<path d="M35.6085 5.04209C34.8884 4.3696 34.0321 4.46244 33.5619 4.58923C33.5449 4.59829 33.5244 4.60622 33.5085 4.61527C33.5074 4.61188 33.5062 4.60848 33.5051 4.60508C33.3211 4.65943 33.2087 4.71377 33.2087 4.71377C34.4977 4.58244 35.6755 5.76439 35.6755 5.76439C35.6482 5.63872 35.6641 5.52437 35.7084 5.41909L35.797 5.26964C36.2161 4.7183 37.4801 4.4998 37.4801 4.4998C36.0548 4.08883 35.6085 5.04209 35.6085 5.04209Z" fill="white"/>
<path d="M28.3115 7.41262C28.2115 7.36507 28.1093 7.32545 28.0048 7.29149L27.8674 7.25186C27.3177 7.10468 26.7521 7.12506 26.3716 7.16922C26.408 7.19865 26.4937 7.24377 26.4937 7.24377C26.8197 7.26641 27.0417 7.33111 27.3132 7.40017L27.3597 7.41149C27.9639 7.56999 28.3773 7.78057 28.3773 7.78057C28.3228 7.65264 28.4341 7.54735 28.6227 7.46017L28.7169 7.42055C29.2462 7.21903 30.1809 7.13638 30.1809 7.13638C28.7578 6.92694 28.3115 7.41262 28.3115 7.41262Z" fill="white"/>
<path fill-rule="evenodd" clip-rule="evenodd" d="M39.6198 3.11251C38.5795 2.23171 37.2996 2.85551 37.2996 2.85551C37.3938 2.84646 37.487 2.84419 37.5801 2.84759C37.6039 2.84646 37.6289 2.84646 37.6516 2.84419V2.85098C38.3126 2.8974 38.9157 3.2427 39.3075 3.52573L39.3666 3.56876C39.6176 3.75556 39.7675 3.90613 39.7675 3.90613C39.7402 3.7816 39.755 3.66838 39.7982 3.56423L39.9606 3.32535C40.1003 3.18157 40.2956 3.06382 40.5034 2.96873L40.7272 2.87476C41.1588 2.7106 41.571 2.63928 41.571 2.63928C41.3393 2.57248 41.1349 2.54191 40.9521 2.53738L40.7136 2.54644C40.1014 2.61324 39.7783 3.08339 39.7289 3.12949C39.6795 3.17559 39.6198 3.11251 39.6198 3.11251Z" fill="white"/>
<path fill-rule="evenodd" clip-rule="evenodd" d="M51.1421 6.65668C51.5384 5.9963 51.7662 5.22324 51.7662 4.39695C51.7662 1.96858 49.7984 0 47.371 0C45.1055 0 43.2403 1.7147 43.0015 3.91756L43.0542 3.84732L46.6646 4.16139L42.976 4.44524C42.9776 4.59766 42.987 4.74823 43.0038 4.89656L45.9582 5.02507L43.0378 5.13743C43.3897 7.21321 45.1958 8.79389 47.371 8.79389C48.8978 8.79389 50.2428 8.01506 51.0307 6.83285L48.9407 6.75243L51.1421 6.65668Z" fill="white"/>
<path d="M130.157 48.2636C130.057 47.5833 129.455 47.1138 128.796 47.1466C126.3 47.2706 124.52 51.1565 124.533 51.5845C125.225 51.0457 125.793 50.8926 127.651 50.4267C129.076 50.0702 130.32 49.3718 130.157 48.2636Z" fill="white"/>
<path d="M128.984 52.0403C129.425 51.9878 129.714 52.0731 130.655 52.3676C131.375 52.5929 132.1 52.6184 132.303 52.0826C132.427 51.7538 132.276 51.3834 131.976 51.2201C130.837 50.6018 129.084 51.8471 128.984 52.0403Z" fill="white"/>
<path d="M58.1152 59.7138L58.1248 59.437C58.1947 57.535 58.6748 55.7379 59.5651 54.0458C60.3854 52.5 61.4187 51.25 62.665 50.2958C63.8987 49.3543 65.1005 48.8836 66.2705 48.8836C67.1608 48.8836 67.8634 49.1921 68.3785 49.8092C68.8173 50.3435 69.0366 50.9987 69.0366 51.7748C69.0366 52.7036 68.6964 53.6196 68.016 54.5229C67.6218 55.0445 67.2021 55.4199 66.757 55.6489C66.5471 55.7634 66.35 55.8206 66.1656 55.8206C65.9875 55.8206 65.8222 55.7825 65.6696 55.7061C65.517 55.6298 65.3835 55.5344 65.269 55.4199C65.0337 55.1718 64.9161 54.9491 64.9161 54.7519C64.9161 54.5547 64.9669 54.418 65.0687 54.3416C66.1115 53.591 66.8206 52.8181 67.1957 52.0229C67.342 51.7176 67.4151 51.4186 67.4151 51.126C67.4151 50.5089 67.1226 50.2004 66.5376 50.2004C65.6219 50.2004 64.6776 50.6998 63.7047 51.6985C62.7954 52.6209 62.0323 53.7786 61.4155 55.1718C60.7733 56.6031 60.4331 57.9167 60.3949 59.1126L60.3854 59.4752C60.3854 60.9065 60.6874 61.8448 61.2915 62.2901C61.5077 62.4491 61.7652 62.5286 62.0641 62.5286C62.3693 62.5286 62.6555 62.4905 62.9226 62.4141C63.1896 62.3378 63.4567 62.2328 63.7238 62.0993C64.1562 61.8766 64.7094 61.4917 65.3835 60.9447C65.5869 60.7856 65.7554 60.8079 65.889 61.0115C66.0034 61.1769 66.0607 61.3677 66.0607 61.584C66.0607 61.9466 66.0098 62.1947 65.9081 62.3283C65.8127 62.4555 65.6442 62.6082 65.4025 62.7863C65.1673 62.9644 64.8779 63.1298 64.5345 63.2825C63.7333 63.6387 62.948 63.8168 62.1786 63.8168C61.4091 63.8168 60.7891 63.7246 60.3186 63.5401C59.848 63.3493 59.4506 63.0789 59.1263 62.729C58.4523 61.9911 58.1152 60.986 58.1152 59.7138Z" fill="white"/>
<path d="M68.2125 63.0725C67.9455 62.8181 67.7356 62.4968 67.583 62.1088C67.4304 61.7144 67.3509 61.25 67.3445 60.7157C67.3382 60.1813 67.4018 59.6406 67.5353 59.0935C67.6752 58.5465 67.8691 58.0185 68.1171 57.5096C68.3715 57.0007 68.6735 56.5236 69.0233 56.0783C69.3794 55.633 69.7705 55.2449 70.1965 54.9141C71.1249 54.2017 72.0883 53.8454 73.0866 53.8454C74.3966 53.8454 75.2836 54.4211 75.7478 55.5725C76.0785 56.4059 76.0976 57.4141 75.805 58.5973C75.538 59.6851 75.0483 60.6839 74.3361 61.5935C73.6303 62.5032 72.7973 63.1489 71.8371 63.5306C71.3538 63.7214 70.8769 63.8168 70.4063 63.8168C69.9421 63.8168 69.5256 63.7564 69.1568 63.6355C68.7944 63.5147 68.4796 63.327 68.2125 63.0725ZM70.0343 58.4447C69.8436 58.9154 69.691 59.3989 69.5765 59.8951C69.4684 60.3912 69.4175 60.862 69.4239 61.3073C69.4303 61.7462 69.497 62.0929 69.6242 62.3473C69.7577 62.5954 69.9708 62.7195 70.2633 62.7195C70.5558 62.7195 70.8419 62.6209 71.1217 62.4237C71.4079 62.2201 71.6845 61.9529 71.9516 61.6222C72.2186 61.2914 72.4698 60.9097 72.7051 60.4771C72.9404 60.0445 73.147 59.5929 73.3251 59.1222C73.713 58.098 73.9006 57.1883 73.8878 56.3931C73.8878 55.6934 73.7448 55.2481 73.4586 55.0573C73.3442 54.9809 73.182 54.9428 72.9722 54.9428C72.7687 54.9428 72.5334 55.0382 72.2663 55.229C71.9992 55.4135 71.7322 55.6648 71.4651 55.9828C71.198 56.3009 70.9405 56.673 70.6925 57.0993C70.4445 57.5255 70.2251 57.9739 70.0343 58.4447Z" fill="white"/>
<path d="M76.364 60.4294C76.3767 59.876 76.4626 59.3257 76.6215 58.7786C76.7869 58.2252 77.0031 57.7036 77.2701 57.2138C77.5436 56.7239 77.8647 56.2723 78.2335 55.8588C78.6087 55.4453 79.0157 55.0891 79.4544 54.7901C80.3701 54.1603 81.3335 53.8454 82.3445 53.8454C83.3874 53.8454 84.0964 54.2621 84.4716 55.0954C84.6051 55.3944 84.6655 55.7348 84.6528 56.1164C84.6465 56.4917 84.586 56.8384 84.4716 57.1565C84.3571 57.4682 84.2141 57.7481 84.0424 57.9962C83.6545 58.556 83.2634 58.8359 82.8691 58.8359C82.4304 58.8359 82.1061 58.715 81.8962 58.4733C81.7118 58.2634 81.6546 58.0185 81.7245 57.7386C81.7436 57.6559 81.8008 57.5827 81.8962 57.5191C81.9916 57.4491 82.1124 57.341 82.2587 57.1947C82.672 56.7621 82.8882 56.2564 82.9073 55.6775C82.92 55.2831 82.6784 55.0859 82.1824 55.0859C81.6482 55.0859 81.0887 55.3849 80.5036 55.9828C79.6515 56.8543 79.0506 57.9708 78.7009 59.3321C78.3957 60.5153 78.4529 61.3804 78.8726 61.9275C79.1206 62.2456 79.4576 62.4046 79.8836 62.4046C80.6022 62.4046 81.2953 62.1501 81.963 61.6412C82.1665 61.4822 82.3318 61.32 82.459 61.1546C82.5862 60.9892 82.7038 60.9065 82.8119 60.9065C82.92 60.9065 83.009 60.9606 83.079 61.0687C83.1553 61.1705 83.1934 61.3041 83.1934 61.4695C83.1934 61.8448 83.0249 62.2138 82.6879 62.5764C81.8231 63.4033 80.7834 63.8168 79.5689 63.8168C78.5324 63.8168 77.7312 63.521 77.1652 62.9294C76.6056 62.3442 76.3386 61.5108 76.364 60.4294Z" fill="white"/>
<path d="M85.4121 63.0725C85.145 62.8181 84.9352 62.4968 84.7825 62.1088C84.6299 61.7144 84.5504 61.25 84.5441 60.7157C84.5377 60.1813 84.6013 59.6406 84.7348 59.0935C84.8747 58.5465 85.0687 58.0185 85.3167 57.5096C85.571 57.0007 85.8731 56.5236 86.2228 56.0783C86.5789 55.633 86.97 55.2449 87.396 54.9141C88.3244 54.2017 89.2878 53.8454 90.2862 53.8454C91.5961 53.8454 92.4832 54.4211 92.9474 55.5725C93.278 56.4059 93.2971 57.4141 93.0046 58.5973C92.7375 59.6851 92.2479 60.6839 91.5357 61.5935C90.8298 62.5032 89.9968 63.1489 89.0366 63.5306C88.5534 63.7214 88.0764 63.8168 87.6059 63.8168C87.1417 63.8168 86.7252 63.7564 86.3564 63.6355C85.9939 63.5147 85.6791 63.327 85.4121 63.0725ZM87.2339 58.4447C87.0431 58.9154 86.8905 59.3989 86.7761 59.8951C86.6679 60.3912 86.6171 60.862 86.6234 61.3073C86.6298 61.7462 86.6966 62.0929 86.8237 62.3473C86.9573 62.5954 87.1703 62.7195 87.4628 62.7195C87.7553 62.7195 88.0415 62.6209 88.3213 62.4237C88.6074 62.2201 88.884 61.9529 89.1511 61.6222C89.4182 61.2914 89.6693 60.9097 89.9046 60.4771C90.1399 60.0445 90.3466 59.5929 90.5246 59.1222C90.9125 58.098 91.1001 57.1883 91.0874 56.3931C91.0874 55.6934 90.9443 55.2481 90.6582 55.0573C90.5437 54.9809 90.3815 54.9428 90.1717 54.9428C89.9682 54.9428 89.7329 55.0382 89.4659 55.229C89.1988 55.4135 88.9317 55.6648 88.6646 55.9828C88.3976 56.3009 88.14 56.673 87.892 57.0993C87.644 57.5255 87.4247 57.9739 87.2339 58.4447Z" fill="white"/>
<path d="M95.4292 62.8435C96.5293 62.0356 97.639 59.9555 98.7581 56.6031C99.4067 54.6501 99.8582 52.8881 100.113 51.3168C100.183 50.8779 100.217 50.5407 100.217 50.3054C99.9568 50.3181 99.7151 50.3881 99.4926 50.5153L98.7772 50.9256C98.5801 51.0337 98.3162 50.9479 97.9855 50.668C97.6612 50.3881 97.5118 50.1527 97.5372 49.9619C97.569 49.7646 97.6771 49.6056 97.8615 49.4848C98.0523 49.3575 98.2717 49.2494 98.5197 49.1603C99.0411 48.9758 99.4767 48.8836 99.8264 48.8836C100.183 48.8836 100.494 48.9122 100.761 48.9695C101.035 49.0204 101.283 49.1094 101.505 49.2367C102.014 49.5293 102.275 49.9491 102.287 50.4962C102.313 51.444 101.992 53.0535 101.324 55.3244C100.268 58.9186 99.0284 61.444 97.604 62.9008C97.2161 63.3015 96.8123 63.5751 96.3926 63.7214C96.2781 63.7659 96.1605 63.7882 96.0397 63.7882C95.9252 63.7882 95.8203 63.7659 95.7249 63.7214C95.6295 63.6832 95.5501 63.6323 95.4865 63.5687C95.3529 63.4479 95.2862 63.3143 95.2862 63.168C95.2862 63.0216 95.3339 62.9135 95.4292 62.8435Z" fill="white"/>
<path d="M101.168 62.042C101.168 61.8448 101.209 61.6635 101.292 61.4981C101.381 61.3264 101.489 61.1832 101.616 61.0687C101.883 60.8206 102.163 60.6966 102.455 60.6966C102.71 60.6966 102.837 60.827 102.837 61.0878C102.837 61.7494 103.056 62.2106 103.495 62.4714C103.654 62.5668 103.819 62.6145 103.991 62.6145C104.163 62.6145 104.309 62.5954 104.43 62.5573C104.55 62.5191 104.662 62.4587 104.763 62.376C104.992 62.1915 105.107 61.972 105.107 61.7176C105.107 61.4631 105.05 61.2309 104.935 61.021C104.821 60.8047 104.678 60.5789 104.506 60.3435L103.962 59.5802C103.199 58.5624 102.818 57.6241 102.818 56.7653C102.818 56.0528 103.12 55.4071 103.724 54.8283C104.411 54.173 105.291 53.8454 106.366 53.8454C107.307 53.8454 108.041 54.0776 108.569 54.542C109.002 54.9173 109.218 55.3467 109.218 55.8302C109.218 56.3327 109.027 56.7335 108.646 57.0325C108.302 57.2996 107.959 57.3982 107.615 57.3283C107.463 57.2965 107.345 57.2201 107.263 57.0993C107.18 56.972 107.164 56.8289 107.215 56.6699C107.266 56.5108 107.291 56.3454 107.291 56.1737C107.291 56.0019 107.259 55.8429 107.196 55.6966C107.132 55.5503 107.046 55.4262 106.938 55.3244C106.716 55.1145 106.48 55.0096 106.232 55.0096C105.991 55.0096 105.79 55.0382 105.631 55.0954C105.472 55.1463 105.333 55.2227 105.212 55.3244C104.964 55.5535 104.84 55.8365 104.84 56.1737C104.84 56.5045 104.897 56.7907 105.011 57.0325C105.126 57.2742 105.266 57.5159 105.431 57.7577C105.603 57.9994 105.787 58.2443 105.984 58.4924C106.181 58.7405 106.363 59.0013 106.528 59.2748C106.929 59.9173 107.129 60.4835 107.129 60.9733C107.129 61.4568 107.027 61.8639 106.824 62.1947C106.62 62.5191 106.356 62.799 106.032 63.0344C105.339 63.5496 104.563 63.8073 103.705 63.8073C102.884 63.8073 102.236 63.6101 101.759 63.2157C101.365 62.8849 101.168 62.4937 101.168 62.042Z" fill="white"/>
<path d="M109.395 63.3397C109.236 63.1743 109.106 62.9644 109.004 62.7099C108.909 62.4491 108.861 62.1501 108.861 61.813C108.861 61.4695 108.937 61.0115 109.09 60.439C109.249 59.8664 109.449 59.2144 109.691 58.4828L110.492 56.1069C111.63 52.799 112.289 50.2417 112.467 48.4351C112.524 47.9008 112.785 47.6336 113.249 47.6336C113.541 47.6336 113.783 47.7036 113.974 47.8435C114.342 48.1234 114.521 48.4351 114.508 48.7786C114.495 49.1222 114.435 49.542 114.327 50.0382C114.219 50.528 114.079 51.0655 113.907 51.6508C113.735 52.2297 113.538 52.8435 113.316 53.4924L111.999 57.3664C111.243 59.5674 110.864 60.9892 110.864 61.6317C110.864 61.9752 111.004 62.147 111.284 62.147C111.551 62.147 111.793 62.0897 112.009 61.9752C112.231 61.8607 112.374 61.8035 112.438 61.8035C112.572 61.8035 112.638 61.8702 112.638 62.0038C112.638 62.57 112.349 63.0439 111.77 63.4256C111.382 63.6864 111.026 63.8168 110.702 63.8168C110.384 63.8168 110.127 63.7786 109.929 63.7023C109.732 63.626 109.554 63.5051 109.395 63.3397Z" fill="white"/>
<path d="M120.771 61.1832C120.771 61.7685 120.977 62.0611 121.391 62.0611C121.677 62.0611 121.912 62.0166 122.097 61.9275C122.287 61.8384 122.414 61.7939 122.478 61.7939C122.612 61.7939 122.678 61.8639 122.678 62.0038C122.678 62.5509 122.392 63.0216 121.82 63.416C121.216 63.8295 120.599 63.9313 119.969 63.7214C119.556 63.5751 119.251 63.2602 119.054 62.7767C118.958 62.5286 118.911 62.3028 118.911 62.0993C118.911 61.7685 118.943 61.4186 119.006 61.0496C118.415 62.2583 117.68 63.0916 116.803 63.5496C116.453 63.7278 116.081 63.8168 115.687 63.8168C115.293 63.8168 114.949 63.7373 114.657 63.5783C114.37 63.4129 114.126 63.187 113.922 62.9008C113.509 62.3028 113.321 61.5522 113.359 60.6489C113.398 59.5166 113.731 58.4065 114.361 57.3187C114.94 56.3009 115.671 55.4708 116.555 54.8283C117.439 54.173 118.265 53.8454 119.035 53.8454C119.804 53.8454 120.424 54.1985 120.895 54.9046C121.333 54.1985 121.721 53.8454 122.058 53.8454C122.421 53.8454 122.694 53.9122 122.879 54.0458C123.228 54.3003 123.352 54.5229 123.251 54.7138C121.655 57.9835 120.834 60.0191 120.79 60.8206C120.777 60.9351 120.771 61.056 120.771 61.1832ZM115.477 61.2214C115.477 61.9848 115.722 62.3664 116.211 62.3664C116.587 62.3664 117.048 62.0484 117.594 61.4122C118.396 60.4771 119.105 59.2176 119.721 57.6336C119.919 57.1374 120.084 56.6412 120.217 56.1451C120.192 55.7125 120.011 55.3944 119.674 55.1909C119.559 55.1209 119.388 55.0859 119.159 55.0859C118.936 55.0859 118.672 55.1686 118.367 55.334C118.068 55.4994 117.776 55.7252 117.49 56.0115C117.21 56.2977 116.946 56.6381 116.698 57.0325C116.456 57.4205 116.243 57.8435 116.059 58.3015C115.671 59.2812 115.477 60.2545 115.477 61.2214Z" fill="white"/>
<path d="M129.895 55.6489C129.698 55.6489 129.418 55.8397 129.056 56.2214C128.693 56.5967 128.378 56.9402 128.111 57.2519L127.301 58.2252L125.736 60.2195C125.368 60.9192 125.078 61.5013 124.868 61.9657L124.353 63.0725C124.22 63.3461 124.102 63.5401 124 63.6546C123.905 63.7627 123.771 63.8168 123.6 63.8168C123.434 63.8168 123.272 63.785 123.113 63.7214C122.961 63.6641 122.827 63.5878 122.713 63.4924C122.471 63.2888 122.35 63.0662 122.35 62.8244C122.35 62.729 122.42 62.5414 122.56 62.2615L122.923 61.4886C123.037 61.2596 123.171 60.9669 123.323 60.6107L123.857 59.3035C124.608 57.4269 124.983 56.215 124.983 55.668C124.983 55.3753 124.887 55.1591 124.697 55.0191L124.506 54.8855C124.442 54.841 124.411 54.7646 124.411 54.6565C124.411 54.542 124.452 54.4339 124.535 54.3321C124.624 54.2303 124.738 54.1412 124.878 54.0649C125.164 53.9186 125.45 53.8454 125.736 53.8454C126.029 53.8454 126.255 53.8772 126.414 53.9409C126.573 54.0045 126.706 54.0903 126.814 54.1985C127.049 54.4211 127.167 54.6533 127.167 54.8951C127.167 55.1368 127.135 55.3817 127.072 55.6298C127.015 55.8715 126.938 56.1196 126.843 56.3741C126.754 56.6222 126.658 56.8671 126.557 57.1088C126.455 57.3505 126.363 57.5605 126.28 57.7386L126.089 58.1489C126.038 58.2507 126.026 58.2825 126.051 58.2443C126.757 57.2647 127.221 56.6349 127.444 56.355L128.111 55.5535C128.601 54.9809 128.986 54.6024 129.266 54.418C129.831 54.0363 130.277 53.8454 130.601 53.8454C130.925 53.8454 131.199 53.8868 131.421 53.9695C131.644 54.0522 131.838 54.1699 132.003 54.3225C132.353 54.647 132.528 55.0605 132.528 55.563C132.528 56.0655 132.413 56.5903 132.184 57.1374C131.955 57.6845 131.755 58.1298 131.583 58.4733C131.418 58.8105 131.259 59.154 131.106 59.5038C130.63 60.5662 130.391 61.3391 130.391 61.8225C130.391 62.0388 130.563 62.147 130.906 62.147C131.173 62.147 131.415 62.0897 131.631 61.9752C131.854 61.8607 131.997 61.8035 132.06 61.8035C132.194 61.8035 132.261 61.8702 132.261 62.0038C132.261 62.57 131.971 63.0439 131.393 63.4256C131.005 63.6864 130.649 63.8168 130.324 63.8168C130 63.8168 129.73 63.7818 129.514 63.7119C129.304 63.6419 129.116 63.5306 128.951 63.3779C128.576 63.0407 128.388 62.57 128.388 61.9657C128.388 61.2278 128.62 60.3054 129.084 59.1985C129.421 58.4415 129.66 57.923 129.8 57.6431L130.124 56.9657C130.321 56.5585 130.42 56.2373 130.42 56.0019C130.42 55.7666 130.245 55.6489 129.895 55.6489Z" fill="white"/>
<path d="M142.539 61.7939C142.673 61.7939 142.739 61.8639 142.739 62.0038C142.739 62.5509 142.456 63.0216 141.891 63.416C141.515 63.6832 141.159 63.8168 140.822 63.8168C140.492 63.8168 140.228 63.7786 140.031 63.7023C139.833 63.626 139.655 63.5051 139.496 63.3397C139.14 62.958 138.962 62.4332 138.962 61.7653C138.962 61.6317 138.988 61.4186 139.039 61.126C138.523 61.9211 138.082 62.4809 137.713 62.8054C136.969 63.4797 136.241 63.8168 135.528 63.8168C134.403 63.8168 133.665 63.3079 133.316 62.2901C133.188 61.9148 133.125 61.444 133.125 60.8779C133.125 60.3117 133.211 59.7392 133.382 59.1603C133.554 58.5814 133.786 58.0312 134.079 57.5096C134.377 56.9879 134.721 56.5045 135.109 56.0592C135.503 55.6075 135.916 55.2163 136.349 54.8855C137.277 54.1921 138.117 53.8454 138.867 53.8454C139.617 53.8454 140.218 54.1508 140.67 54.7615C141.776 50.9701 142.609 48.7341 143.169 48.0535C143.404 47.7736 143.652 47.6336 143.913 47.6336C144.345 47.6336 144.673 47.7577 144.895 48.0057C144.965 48.0884 145 48.1711 145 48.2538C145 48.3365 144.949 48.4892 144.847 48.7119C144.746 48.9345 144.596 49.2939 144.399 49.7901C143.833 51.285 143.436 52.3792 143.207 53.0725C142.622 54.8473 142.228 56.0687 142.024 56.7367L141.499 58.5019C141.048 60.0732 140.822 61.0719 140.822 61.4981C140.822 61.9243 140.978 62.1374 141.29 62.1374C141.576 62.1374 141.805 62.0993 141.976 62.0229L142.339 61.8512C142.409 61.813 142.476 61.7939 142.539 61.7939ZM135.986 62.3855C136.641 62.3855 137.392 61.7462 138.237 60.4676C139.121 59.1444 139.738 57.7036 140.088 56.1451C140.062 55.7125 139.881 55.3944 139.544 55.1909C139.43 55.1209 139.255 55.0859 139.019 55.0859C138.791 55.0859 138.52 55.1718 138.209 55.3435C137.903 55.5089 137.605 55.7348 137.312 56.021C137.026 56.3073 136.756 56.6444 136.501 57.0325C136.253 57.4141 136.037 57.8213 135.853 58.2538C135.452 59.1953 135.252 60.1209 135.252 61.0306C135.252 61.9339 135.497 62.3855 135.986 62.3855Z" fill="white"/>
<ellipse rx="1.51078" ry="1.76644" transform="matrix(0.995444 -0.0953431 0.095271 0.995451 27.8251 26.3523)" fill="white"/>
<ellipse rx="1.51135" ry="1.76307" transform="matrix(0.893921 -0.448225 0.447952 0.894058 30.0962 25.7653)" fill="white"/>
<ellipse rx="0.754696" ry="0.849033" transform="matrix(0.998338 -0.0576322 0.0575884 0.99834 16.4754 44.9)" fill="white"/>
<ellipse rx="0.849033" ry="1.01791" transform="matrix(0.903811 -0.427931 0.427664 0.903938 17.5629 44.5199)" fill="white"/>
</svg>
